<?xml version="1.0" standalone="no"?>
<!DOCTYPE svg PUBLIC "-//W3C//DTD SVG 20010904//EN"
 "http://www.w3.org/TR/2001/REC-SVG-20010904/DTD/svg10.dtd">
<svg version="1.0" xmlns="http://www.w3.org/2000/svg"
 width="260.000000pt" height="260.000000pt" viewBox="0 0 260.000000 260.000000"
 preserveAspectRatio="xMidYMid meet">
<metadata>
Created by potrace 1.14, written by Peter Selinger 2001-2017
</metadata>
<g transform="translate(0.000000,260.000000) scale(0.100000,-0.100000)"
fill="#000000" stroke="none">
<path d="M0 1300 l0 -1300 1300 0 1300 0 0 1300 0 1300 -1300 0 -1300 0 0
-1300z m1542 936 c154 -30 265 -86 362 -182 70 -70 116 -146 153 -249 25 -72
28 -94 28 -210 0 -110 -4 -141 -23 -200 -38 -114 -81 -184 -162 -265 -119
-120 -267 -184 -451 -197 l-87 -6 -4 -136 c-5 -152 -23 -216 -79 -284 -70 -85
-223 -121 -354 -82 -78 22 -169 110 -180 173 -12 74 29 145 99 172 40 15 77 5
128 -36 48 -37 82 -43 97 -16 5 10 13 62 17 115 l7 97 -74 0 c-87 0 -127 19
-152 73 -35 73 -12 156 55 197 24 15 51 20 101 20 l67 0 0 286 c0 323 1 328
75 364 51 25 69 25 121 1 71 -32 74 -47 74 -370 l0 -281 48 0 c105 0 237 53
294 119 83 94 111 253 69 391 -19 60 -31 82 -75 125 -34 34 -72 60 -111 76
-59 24 -64 24 -410 24 -344 0 -351 0 -400 -23 -99 -46 -139 -108 -139 -217 0
-83 20 -130 95 -217 73 -84 86 -135 52 -205 -29 -61 -101 -89 -167 -63 -69 26
-186 177 -225 291 -14 40 -24 100 -28 159 -9 168 36 298 143 407 70 71 169
125 275 147 92 20 658 22 761 2z m645 -1475 c134 -61 132 -281 -4 -337 -144
-60 -281 93 -218 244 42 98 129 135 222 93z"/>
</g>
</svg>
